<?xml version="1.0" standalone="no"?>
<!DOCTYPE svg PUBLIC "-//W3C//DTD SVG 1.1//EN" "http://www.w3.org/Graphics/SVG/1.1/DTD/svg11.dtd" >
<svg xmlns="http://www.w3.org/2000/svg" xmlns:xlink="http://www.w3.org/1999/xlink" version="1.1">
<metadata>
Created by FontForge 20201107 at Tue Sep 16 23:43:36 2025
 By 
 
</metadata>
<defs>
<font id="RishaNeoUwU" horiz-adv-x="1061" >
  <font-face 
    font-family="Risha Neo"
    font-weight="500"
    font-stretch="normal"
    units-per-em="2048"
    panose-1="0 0 0 0 0 0 0 0 0 0"
    ascent="1638"
    descent="-410"
    x-height="1536"
    cap-height="1536"
    bbox="-7 -385 2268 2087"
    underline-thickness="0"
    underline-position="0"
    unicode-range="U+0020-2192"
  />
<missing-glyph horiz-adv-x="2048" 
 />
    <glyph glyph-name=".notdef" horiz-adv-x="2048" 
 />
    <glyph glyph-name=".notdef" horiz-adv-x="2048" 
 />
    <glyph glyph-name=".null" horiz-adv-x="0" 
 />
    <glyph glyph-name="nonmarkingreturn" horiz-adv-x="682" 
 />
    <glyph glyph-name="space" unicode=" " horiz-adv-x="648" 
 />
    <glyph glyph-name="exclam" unicode="!" horiz-adv-x="432" 
d="M348 0v246h-264v-246h264zM348 394v1142h-264v-1142h264z" />
    <glyph glyph-name="numbersign" unicode="#" horiz-adv-x="1485" 
d="M630 1154h267l48 382h266l-48 -382h238v-264h-271l-51 -408h279v-264h-312l-27 -218h-266l27 218h-272l-28 -218h-266l28 218h-158v264h193l53 408h-203v264h237l50 382h266zM543 482h270l51 408h-268z" />
    <glyph glyph-name="dollar" unicode="$" horiz-adv-x="1326" 
d="M796 1634l-1 -105h48q165 0 282 -116.5t117 -282.5h-252q0 61 -43 104t-104 43h-50l-4 -445l220 -93q106 -45 169.5 -140.5t63.5 -210.5q0 -158 -112 -269.5t-269 -111.5h-78l-1 -107l-252 2l1 105h-40q-169 0 -288 119t-119 287h252q0 -64 45.5 -109t109.5 -45h42l3 406
l-194 77q-117 46 -187.5 150t-70.5 229q0 169 119.5 288.5t288.5 119.5h51l1 107zM785 259h76q53 0 91 38t38 91q0 39 -21.5 71.5t-57.5 47.5l-124 53zM492 1277q-64 0 -110 -45.5t-46 -110.5q0 -48 27 -87.5t71 -57.5l104 -41l3 342h-49z" />
    <glyph glyph-name="percent" unicode="%" horiz-adv-x="1536" 
d="M1396 1460l-224 140l-948 -1506l224 -140zM1374 234v270h-264v-270h264zM468 1014v279h-264v-279h264z" />
    <glyph glyph-name="parenleft" unicode="(" horiz-adv-x="804" 
d="M722 1909l-195 178q-73 -80 -141 -185.5t-130.5 -252t-101.5 -307t-45 -355t28.5 -392.5t130 -424.5t248.5 -444.5l216 152q-135 192 -219 390.5t-114 370t-25.5 340t38 305.5t86 261t108.5 211t116 153z" />
    <glyph glyph-name="parenright" unicode=")" horiz-adv-x="804" 
d="M338 2087l-196 -178q60 -66 116 -153t108.5 -211t86 -261t38 -305.5t-25.5 -340t-114 -370t-219 -390.5l216 -152q153 218 248.5 444.5t130 424.5t28.5 392.5t-45 355t-101 307t-130 252t-141 185.5z" />
    <glyph glyph-name="plus" unicode="+" horiz-adv-x="1368" 
d="M821 895l-5 516l-264 -2l5 -516l-510 -5l2 -264l510 5l5 -504l264 2l-5 504l510 5l-2 264z" />
    <glyph glyph-name="comma" unicode="," horiz-adv-x="696" 
d="M530 202l-244 100l-216 -528l244 -100z" />
    <glyph glyph-name="hyphen" unicode="-" horiz-adv-x="948" 
d="M918 582v264h-870v-264h870z" />
    <glyph glyph-name="period" unicode="." horiz-adv-x="480" 
d="M377 285l-264 5l-5 -288l264 -4z" />
    <glyph glyph-name="slash" unicode="/" horiz-adv-x="858" 
d="M771 1650l-257 60l-427 -1816l258 -60z" />
    <glyph glyph-name="zero" unicode="0" 
d="M542 1536q182 -5 308.5 -135t126.5 -312v-642v-12q-5 -181 -134.5 -308t-311.5 -127h-12q-181 5 -308 135t-127 312v642q0 185 131 316t316 131h11zM531 1284q-81 0 -138 -57t-57 -138v-642q0 -81 57 -138t138 -57q80 0 137 57t57 138v642q0 81 -57 138t-137 57z" />
    <glyph glyph-name="one" unicode="1" horiz-adv-x="815" 
d="M482 1535l-1 1l-1 -1h-1v-1l-395 -435l187 -169l208 229v-1160h252v1536h-249z" />
    <glyph glyph-name="two" unicode="2" horiz-adv-x="1078" 
d="M515 1536q-88 0 -167.5 -34t-137.5 -92t-92 -137.5t-34 -167.5v-7h252v7q0 74 52.5 126.5t126.5 52.5q94 0 160.5 -67t66.5 -161q0 -83 -48 -151l-527 -748v-154h793v252h-415l355 505q94 134 94 296q0 198 -140.5 339t-338.5 141z" />
    <glyph glyph-name="three" unicode="3" horiz-adv-x="978" 
d="M486 1536q-150 0 -263.5 -97t-137.5 -243h261q19 40 57 64t83 24q65 0 110.5 -45.5t45.5 -109.5v-84q0 -65 -46 -110.5t-110 -45.5h-10v-254h11q65 0 110 -45.5t45 -109.5v-73q0 -65 -45 -110t-110 -45q-47 0 -86 26t-57 68h-260q22 -145 132.5 -243.5t259.5 -102.5h11
q169 0 288 119t119 288v73q0 165 -114 282q109 114 114 272v11v84q0 169 -119.5 288t-288.5 119z" />
    <glyph glyph-name="four" unicode="4" horiz-adv-x="969" 
d="M798 1522v-881h87v-252h-87v-386h-252v386h-462v299l453 848h203zM345 641h201v377z" />
    <glyph glyph-name="five" unicode="5" horiz-adv-x="993" 
d="M789 1282v252h-725v-891l127 2q175 2 278 -41q60 -25 87 -61q32 -41 32 -107q0 -57 -38 -95q-40 -42 -125 -70q-147 -47 -334 -38l-14 -251q90 -6 205.5 4.5t221.5 45.5q143 48 226 132q110 113 110 272q0 152 -84 261q-71 91 -191 140q-106 44 -249 55v390h473z" />
    <glyph glyph-name="six" unicode="6" horiz-adv-x="996" 
d="M489 1571q167 0 285.5 -118.5t118.5 -285.5v-96h-252v96q0 63 -44.5 107.5t-107.5 44.5q-62 0 -106 -43t-46 -105v-4v-260q74 31 150 32h11q169 0 289 -117.5t125 -285.5v-10v-153q0 -168 -117.5 -288.5t-285.5 -124.5l-11 -1q-172 0 -293 121.5t-121 292.5v710h1v84v10
q5 164 122 279t282 115zM498 687q-67 0 -114.5 -47t-47.5 -114v-153q0 -67 47.5 -114.5t114.5 -47.5t114.5 47.5t47.5 114.5v153q0 67 -47.5 114t-114.5 47z" />
    <glyph glyph-name="seven" unicode="7" horiz-adv-x="924" 
d="M672 1536l-24 6l-2 -6h-547v-252h479l-344 -1284h261l343 1280v256h-166z" />
    <glyph glyph-name="eight" unicode="8" horiz-adv-x="996" 
d="M498 1572q168 0 288.5 -117.5t125.5 -285.5v-11v-95q0 -171 -121 -292q117 -117 121 -281v-11v-95q0 -168 -117.5 -288.5t-285.5 -124.5l-11 -1q-172 0 -293 121.5t-121 292.5v95v11q5 166 121 281q-121 121 -121 292v95v11q4 165 121 282t282 121h11zM498 641
q-67 0 -114.5 -47.5t-47.5 -114.5v-95q0 -67 47.5 -114.5t114.5 -47.5t114.5 47.5t47.5 114.5v95q0 67 -47.5 114.5t-114.5 47.5zM498 1320q-68 0 -115 -47t-47 -115v-95q0 -67 47.5 -114t114.5 -47t114.5 47t47.5 114v95q0 67 -47.5 114.5t-114.5 47.5z" />
    <glyph glyph-name="nine" unicode="9" horiz-adv-x="996" 
d="M498 1564q171 0 292.5 -121.5t121.5 -292.5v-690h-1v-78q0 -167 -118.5 -285.5t-285.5 -118.5t-285.5 118.5t-118.5 285.5v90h252v-90q0 -63 44.5 -107.5t107.5 -44.5t107.5 44.5t44.5 107.5v251q-76 -31 -150 -32h-11q-169 0 -289 117.5t-125 285.5v11v135
q0 168 117.5 288.5t285.5 124.5zM498 1312q-67 0 -114.5 -47.5t-47.5 -114.5v-135q0 -67 47 -114.5t115 -47.5q67 0 114.5 47.5t47.5 114.5v135q0 67 -47.5 114.5t-114.5 47.5z" />
    <glyph glyph-name="colon" unicode=":" horiz-adv-x="480" 
d="M320 466l-264 5l-5 -288l264 -5zM319 1235l-264 2l-3 -287l264 -3z" />
    <glyph glyph-name="less" unicode="&#x3c;" horiz-adv-x="1140" 
d="M1072 1264l-164 208l-822 -648l-5 -204l822 -714l174 200l-702 609z" />
    <glyph glyph-name="equal" unicode="=" horiz-adv-x="1368" 
d="M1332 270v264h-1284v-264h1284zM1332 834v264h-1284v-264h1284z" />
    <glyph glyph-name="greater" unicode="&#x3e;" horiz-adv-x="1152" 
d="M1072 824l-822 648l-164 -208l697 -549l-702 -609l174 -200l822 714z" />
    <glyph glyph-name="question" unicode="?" horiz-adv-x="931" 
d="M597 0v249h-248v-249h248zM475 1536h-10q-157 0 -269 -112t-112 -269v-3h252v3q0 53 38 91t91 38q54 0 92 -38t38 -91v-3q0 -120 -86 -203q-79 -76 -121.5 -176t-42.5 -209v-189h252v189q0 121 87 203q78 76 120.5 176t42.5 209v3q0 155 -108.5 266t-263.5 115z" />
    <glyph glyph-name="A" unicode="A" horiz-adv-x="1548" 
d="M1477 -10h-269l-151 411h-571l-151 -411h-268l564 1536h282zM579 653h386l-193 525z" />
    <glyph glyph-name="B" unicode="B" horiz-adv-x="1272" 
d="M609 1536q180 0 307.5 -127.5t127.5 -307.5v-11q-3 -131 -79 -239q102 -61 162.5 -165.5t60.5 -227.5q0 -187 -130.5 -320t-315.5 -138h-12h-646v1536h525zM336 252h394q86 0 146 60t60 146t-60 146t-146 60h-394v-412zM336 919h273q76 0 129.5 53t53.5 129t-53.5 129.5
t-129.5 53.5h-273v-365z" />
    <glyph glyph-name="C" unicode="C" horiz-adv-x="1446" 
d="M522 1472q-203 -100 -321 -292q-119 -191 -117 -418q2 -226 124 -417q121 -189 326 -286q203 -96 428 -70q223 27 400 169l-164 203q-118 -95 -267 -113q-151 -17 -286 47q-137 65 -218 191q-80 126 -82 278q-2 151 78 279q77 126 214 195q137 66 285 51
q149 -15 269 -109l161 206q-177 139 -403 162t-427 -76z" />
    <glyph glyph-name="D" unicode="D" horiz-adv-x="1416" 
d="M612 1536q196 0 361.5 -96.5t262 -262t96.5 -361.5v-96q0 -196 -96.5 -361.5t-262 -262t-361.5 -96.5h-528v1536h528zM336 252h276q95 0 181.5 37t149.5 100t100 149.5t37 181.5v96q0 95 -37 181.5t-100 149.5t-149.5 100t-181.5 37h-276v-1032z" />
    <glyph glyph-name="E" unicode="E" horiz-adv-x="1296" 
d="M1213 1284v252h-1129v-1536h1129v252h-877v367h634v252h-634v413h877z" />
    <glyph glyph-name="F" unicode="F" horiz-adv-x="1116" 
d="M1031 1284v252h-947v-1536h252v619h491v252h-491v413h695z" />
    <glyph glyph-name="G" unicode="G" horiz-adv-x="1706" 
d="M506 1449q-122 -62 -215 -162t-145 -227q-53 -126 -58.5 -262.5t37.5 -267.5q42 -130 126.5 -237.5t201.5 -179.5q241 -147 520 -104q135 22 254.5 88.5t208.5 170.5q89 105 136.5 233t47.5 265v126h-766v-252h498q-29 -115 -108 -208q-123 -145 -310 -174t-349 70
q-156 95 -217 269l-4 11q-58 181 15 356t242 261q170 86 353 41q183 -43 296 -198l204 148q-80 111 -194 187.5t-247 107.5q-133 32 -269 16t-258 -78z" />
    <glyph glyph-name="H" unicode="H" horiz-adv-x="1465" 
d="M1381 1536l-252 1l-2 -643h-787l3 641l-252 1l-3 -642h-4v-252h3l-3 -642l252 -1l3 643h786l-2 -641l252 -1z" />
    <glyph glyph-name="I" unicode="I" horiz-adv-x="1072" 
d="M988 1286v252h-904v-252h326v-1042h-326v-252h904v252h-326v1042h326z" />
    <glyph glyph-name="J" unicode="J" horiz-adv-x="1260" 
d="M336 579h-252q0 -157 73 -290.5t198.5 -211t274.5 -77.5t274.5 77.5t198.5 211t73 290.5v957h-252v-957q0 -141 -89 -234t-205 -93t-205 93t-89 234z" />
    <glyph glyph-name="K" unicode="K" horiz-adv-x="1568" 
d="M1353 1548h-255q-59 -356 -355 -522q-173 -97 -400 -120v635h-252v-1529h252v631q26 2 37 4q278 -11 483 -126q291 -165 353 -509h255q-36 258 -164 439t-320 289q-57 32 -129 62l5 2.5t4 2.5q194 109 322.5 293.5t163.5 447.5z" />
    <glyph glyph-name="L" unicode="L" horiz-adv-x="1260" 
d="M336 252v1284h-252v-1536h1097v252h-845z" />
    <glyph glyph-name="M" unicode="M" horiz-adv-x="1796" 
d="M899 683l-511 853h-304v-1536h252v1119l412 -687h302l405 675v-1107h252v1528l5 8h-302z" />
    <glyph glyph-name="N" unicode="N" horiz-adv-x="1627" 
d="M1291 312l-952 1224h-255v-1536h242v1143l889 -1143h328v1536h-252v-1224z" />
    <glyph glyph-name="O" unicode="O" horiz-adv-x="1656" 
d="M828 1536q209 0 385.5 -103t279.5 -279.5t103 -385.5t-103 -385.5t-279.5 -279.5t-385.5 -103t-385.5 103t-279.5 279.5t-103 385.5t103 385.5t279.5 279.5t385.5 103zM828 1284q-140 0 -259 -69t-188 -188t-69 -259t69 -259t188 -188t259 -69t259 69t188 188t69 259
t-69 259t-188 188t-259 69z" />
    <glyph glyph-name="P" unicode="P" horiz-adv-x="1491" 
d="M949 1536q209 0 357.5 -148.5t148.5 -357.5v-13q-3 -99 -42.5 -189t-105.5 -156t-156 -105.5t-189 -42.5h-13h-613v-524h-252v1536h865zM336 776h613q105 0 179.5 74.5t74.5 179.5t-74.5 179.5t-179.5 74.5h-613v-508z" />
    <glyph glyph-name="Q" unicode="Q" horiz-adv-x="1704" 
d="M852 1518q209 0 385.5 -103t279.5 -279.5t103 -385.5q0 -150 -55 -285.5t-155 -241.5l147 -147l-178 -178l-171 171q-169 -87 -356 -87q-209 0 -385.5 103t-279.5 279.5t-103 385.5t103 385.5t279.5 279.5t385.5 103zM852 1266q-140 0 -259 -69t-188 -188t-69 -259
t69 -259t188 -188t259 -69q83 0 164 27l-97 97l179 178l134 -135q136 149 136 349q0 140 -69 259t-188 188t-259 69z" />
    <glyph glyph-name="R" unicode="R" horiz-adv-x="1539" 
d="M949 1536q209 0 357.5 -148.5t148.5 -357.5v-13q-3 -97 -41 -185.5t-101.5 -154t-150.5 -106t-184 -46.5l525 -525h-356l-524 524h-287v-524h-252v1536h865zM336 776h613q105 0 179.5 74.5t74.5 179.5t-74.5 179.5t-179.5 74.5h-613v-508z" />
    <glyph glyph-name="S" unicode="S" horiz-adv-x="1467" 
d="M1251 1278v252h-717q-184 0 -314.5 -130t-130.5 -314t130 -314t315 -130h356q79 0 135.5 -56.5t56.5 -136.5q0 -79 -56 -135.5t-136 -56.5h-710v-252h710q184 0 314 130t130 314q0 185 -130 315t-314 130h-356q-80 0 -136.5 56t-56.5 136t56.5 136t136.5 56h717z" />
    <glyph glyph-name="T" unicode="T" horiz-adv-x="1428" 
d="M1344 1536h-1260v-252h504v-1284h252v1284h504v252z" />
    <glyph glyph-name="U" unicode="U" horiz-adv-x="1438" 
d="M336 635v901h-252v-901v-8q1 -127 51.5 -242.5t134 -199t199 -134t242.5 -51.5h8q128 0 245 49.5t201.5 133.5t135.5 200t53 244v8v901h-252v-901q0 -159 -112.5 -271t-270.5 -112q-159 0 -271 112t-112 271z" />
    <glyph glyph-name="V" unicode="V" horiz-adv-x="1387" 
d="M693 236l-348 1300h-261l412 -1536h395l412 1536h-261z" />
    <glyph glyph-name="W" unicode="W" horiz-adv-x="2244" 
d="M693 236l-348 1300h-261l412 -1536h395l285 1064l285 -1064h395l412 1536h-261l-348 -1300l-349 1300h-268z" />
    <glyph glyph-name="X" unicode="X" horiz-adv-x="1713" 
d="M857 970l-451 566h-322l612 -768l-612 -768h322l451 566l450 -566h322l-611 768l611 768h-322z" />
    <glyph glyph-name="Y" unicode="Y" horiz-adv-x="1794" 
d="M927 854l-525 682h-318l684 -888l-499 -648h318l1183 1536h-318z" />
    <glyph glyph-name="Z" unicode="Z" horiz-adv-x="1380" 
d="M1387 1284v249h-1394v-249h1032l-1028 -1035h-4v-249h1394v249h-1035l1028 1035h7z" />
    <glyph glyph-name="backslash" unicode="\" horiz-adv-x="858" 
d="M771 -106l-426 1816l-258 -60l427 -1816z" />
    <glyph glyph-name="asciicircum" unicode="^" horiz-adv-x="1248" 
d="M731 1561h-202l-438 -516l202 -170l336 396l332 -396l202 170z" />
    <glyph glyph-name="a" unicode="a" horiz-adv-x="1193" 
d="M1193 -204l-3 11v-12zM1142 -11h-261l-110 411h-352l-110 -411h-261l412 1536h270zM487 652h216l-108 404z" />
    <glyph glyph-name="b" unicode="b" horiz-adv-x="964" 
d="M342 1536q180 0 307 -127.5t127 -307.5v-11q-3 -143 -92 -256q91 -63 143.5 -162t52.5 -214q0 -124 -61.5 -229.5t-167 -167t-229.5 -61.5h-338v1536h258zM336 252h86q86 0 146 60t60 146t-60 146t-146 60h-86v-412zM336 919h6q75 0 128.5 53t53.5 129t-53.5 129.5
t-128.5 53.5h-6v-365z" />
    <glyph glyph-name="c" unicode="c" horiz-adv-x="893" 
d="M809 1267v252h-47q-148 0 -282.5 -57.5t-231.5 -154.5t-154.5 -231.5t-57.5 -282.5v-50q0 -148 57.5 -282.5t154.5 -231.5t231.5 -154.5t282.5 -57.5h47v252h-47q-129 0 -238 63.5t-172.5 172.5t-63.5 238v50q0 129 63.5 238t172.5 172.5t238 63.5h47z" />
    <glyph glyph-name="d" unicode="d" 
d="M267 1536q193 -2 356.5 -99t258.5 -262t95 -359v-96v-9q-2 -145 -59.5 -277t-154 -227t-228.5 -151t-278 -56h-173v1536h173h10zM336 259q167 28 278 158t111 303v96q0 173 -111 303t-278 158v-1018z" />
    <glyph glyph-name="e" unicode="e" horiz-adv-x="852" 
d="M771 1284v252h-687v-1536h687v252h-435v367h436v252h-436v413h435z" />
    <glyph glyph-name="f" unicode="f" horiz-adv-x="792" 
d="M705 1284v252h-621v-1536h252v619h369v252h-369v413h369z" />
    <glyph glyph-name="g" unicode="g" horiz-adv-x="1060" 
d="M530 1524q-182 0 -311 -129.5t-129 -311.5v-630q0 -182 129 -311.5t311 -129.5t311 129.5t129 311.5v387h-425v-252h173v-135q0 -78 -55 -133.5t-133 -55.5t-133 55.5t-55 133.5v630q0 78 55 133.5t133 55.5t133 -55.5t55 -133.5v-72h252v72q0 182 -129 311.5t-311 129.5
z" />
    <glyph glyph-name="h" unicode="h" horiz-adv-x="1180" 
d="M1096 1536l-252 1l-3 -643h-501l3 641l-252 1l-3 -642h-4v-252h3l-3 -642l252 -1l3 643h501l-2 -641l252 -1z" />
    <glyph glyph-name="i" unicode="i" horiz-adv-x="420" 
d="M336 0v1536h-252v-1536h252z" />
    <glyph glyph-name="j" unicode="j" horiz-adv-x="714" 
d="M378 579q0 -141 -89 -234t-205 -93v-252q149 0 274.5 77.5t198.5 211t73 290.5v957h-252v-957z" />
    <glyph glyph-name="k" unicode="k" horiz-adv-x="1012" 
d="M326 1021v515h-242v-1536h242v444l298 -444h303l-491 732l528 787l-25 17h-268z" />
    <glyph glyph-name="l" unicode="l" horiz-adv-x="912" 
d="M336 252v1284h-252v-1536h741v252h-489z" />
    <glyph glyph-name="m" unicode="m" horiz-adv-x="1230" 
d="M336 1517v19h-252v-1536h252v878l139 -324l-2 -3l4 -1l6 -14h258l6 14l3 1l-1 3l145 338v-892h252v1536h-252v-5l-282 -657z" />
    <glyph glyph-name="n" unicode="n" horiz-adv-x="978" 
d="M310 1533v3h-226v-1536h226v813l303 -813h281v1536h-252v-894z" />
    <glyph glyph-name="o" unicode="o" 
d="M542 1536q182 -5 308.5 -135t126.5 -312v-642v-12q-5 -181 -134.5 -308t-311.5 -127h-12q-181 5 -308 135t-127 312v642q0 185 131 316t316 131h11zM531 1284q-81 0 -138 -57t-57 -138v-642q0 -81 57 -138t138 -57q80 0 137 57t57 138v642q0 81 -57 138t-137 57z" />
    <glyph glyph-name="p" unicode="p" horiz-adv-x="1042" 
d="M452 1536q209 0 357.5 -148.5t148.5 -357.5l-1 -13q-2 -99 -41.5 -189t-105.5 -156t-156 -105.5t-189 -42.5h-13h-116v-524h-252v1536h368zM336 776h116q105 0 179.5 74.5t74.5 179.5t-74.5 179.5t-179.5 74.5h-116v-508z" />
    <glyph glyph-name="q" unicode="q" horiz-adv-x="1272" 
d="M603 1524q132 -3 243 -70.5t175.5 -180.5t64.5 -246v-525q0 -180 -116 -319q117 -47 212 -120l-154 -199q-125 96 -278 117l-170 25h-3q-201 5 -342.5 149.5t-141.5 346.5v525q0 135 66.5 249.5t181 181t249.5 66.5h13zM590 1272q-101 0 -173 -71.5t-72 -173.5v-525
q0 -101 72 -172.5t173 -71.5t172.5 71.5t71.5 172.5v525q0 102 -71.5 173.5t-172.5 71.5z" />
    <glyph glyph-name="r" unicode="r" horiz-adv-x="1106" 
d="M436 1536q134 -3 247.5 -71.5t179.5 -184t66 -250.5v-13q-5 -187 -129.5 -324.5t-306.5 -163.5l529 -529h-356l-330 330v-330h-252v1536h339h13zM336 776h87q105 0 179.5 74.5t74.5 179.5t-74.5 179.5t-179.5 74.5h-87v-508z" />
    <glyph glyph-name="s" unicode="s" horiz-adv-x="901" 
d="M450 1529q-159 0 -271.5 -112.5t-112.5 -271.5v-53v-6q1 -106 51 -199t137 -153l99 -70l167 -123q63 -48 63 -126v-24q0 -55 -39 -93.5t-94 -38.5t-93.5 38.5t-38.5 93.5v22h-252v-22q0 -159 112.5 -271.5t271.5 -112.5q160 0 272.5 112.5t112.5 271.5v24
q0 97 -43.5 183.5t-121.5 144.5l-168 125l-2 1l-103 72q-76 52 -79 146v5v53q0 55 38.5 93.5t93.5 38.5t94 -38.5t39 -93.5v-15h252v15q0 159 -112.5 271.5t-272.5 112.5z" />
    <glyph glyph-name="t" unicode="t" horiz-adv-x="1100" 
d="M1016 1276v252h-932v-252h340v-1276h252v1276h340z" />
    <glyph glyph-name="u" unicode="u" horiz-adv-x="1060" 
d="M336 446v1090h-252v-1090q0 -182 126.5 -311.5t307.5 -134.5h12q181 0 311 126.5t135 307.5v12v1090h-252v-1090q0 -80 -57 -137t-137 -57t-137 57t-57 137z" />
    <glyph glyph-name="v" unicode="v" horiz-adv-x="1000" 
d="M500 540l-161 996h-255l248 -1536h336l248 1536h-256z" />
    <glyph glyph-name="w" unicode="w" horiz-adv-x="1512" 
d="M483 588l-144 948h-255l233 -1536h331l108 712l109 -712h331l233 1536h-255l-144 -948l-144 948h-259z" />
    <glyph glyph-name="x" unicode="x" horiz-adv-x="1012" 
d="M506 1127l-153 409h-269l288 -768l-288 -768h269l153 409l153 -409h269l-287 768l287 768h-269z" />
    <glyph glyph-name="y" unicode="y" horiz-adv-x="911" 
d="M480 1090l-133 446h-263l264 -888l-193 -648h263l457 1536h-263z" />
    <glyph glyph-name="z" unicode="z" horiz-adv-x="921" 
d="M837 1206v330h-753v-249h511l-511 -951v-333h753v249h-512z" />
    <glyph glyph-name="Edieresis" unicode="&#xcb;" horiz-adv-x="1296" 
d="M1213 1284v252h-1129v-1536h1129v252h-877v367h634v252h-634v413h877zM552 1645v275h-264v-275h264zM1044 1645v275h-264v-275h264z" />
    <glyph glyph-name="uni410" unicode="&#x410;" horiz-adv-x="1548" 
d="M1477 -10h-269l-151 411h-571l-151 -411h-268l564 1536h282zM579 653h386l-193 525z" />
    <glyph glyph-name="uni411" unicode="&#x411;" horiz-adv-x="1393" 
d="M1220 1284h-884v-334h498h13q192 -5 327 -143.5t135 -331.5q0 -129 -63.5 -238.5t-173 -173t-238.5 -63.5h-750v1536h1136v-252zM336 698v-446h498q92 0 157.5 65.5t65.5 157.5t-65.5 157.5t-157.5 65.5h-498z" />
    <glyph glyph-name="uni412" unicode="&#x412;" horiz-adv-x="1272" 
d="M609 1536q180 0 307.5 -127.5t127.5 -307.5v-11q-3 -131 -79 -239q102 -61 162.5 -165.5t60.5 -227.5q0 -187 -130.5 -320t-315.5 -138h-12h-646v1536h525zM336 252h394q86 0 146 60t60 146t-60 146t-146 60h-394v-412zM336 919h273q76 0 129.5 53t53.5 129t-53.5 129.5
t-129.5 53.5h-273v-365z" />
    <glyph glyph-name="uni413" unicode="&#x413;" horiz-adv-x="1224" 
d="M1137 1284v252h-1053v-1536h252v1284h801z" />
    <glyph glyph-name="uni414" unicode="&#x414;" horiz-adv-x="2250" 
d="M1803 234h357v-607h-252v355h-1566v-355h-252v607h234q81 185 81 390v918h1398v-1308zM657 624q0 -202 -63 -390h957v1056h-894v-666z" />
    <glyph glyph-name="uni415" unicode="&#x415;" horiz-adv-x="1296" 
d="M1213 1284v252h-1129v-1536h1129v252h-877v367h634v252h-634v413h877z" />
    <glyph glyph-name="uni416" unicode="&#x416;" horiz-adv-x="2064" 
d="M906 1072l-465 464h-357l770 -768l-770 -768h357l465 464v-464h252v464l465 -464h357l-770 768l770 768h-357l-465 -464v464h-252v-464z" />
    <glyph glyph-name="uni417" unicode="&#x417;" horiz-adv-x="1454" 
d="M932 1536h-12h-398h-12q-152 -4 -270 -99.5t-154 -240.5h271q28 41 71 64.5t94 23.5h398q82 0 140 -58t58 -140q0 -68 -41 -120.5t-105 -69.5q-26 2 -40 2l-12 1h-376v-262h376h12q20 0 40 3q64 -17 105 -70t41 -121q0 -82 -58 -140t-140 -58h-398q-53 0 -97.5 25.5
t-71.5 69.5h-269q35 -148 153 -245t273 -101l12 -1h398l12 1q179 5 306.5 131.5t131.5 305.5v12q0 186 -133 319q128 127 133 307v11q0 184 -128 314.5t-310 135.5z" />
    <glyph glyph-name="uni418" unicode="&#x418;" horiz-adv-x="1639" 
d="M336 1536h-252v-1536h329l889 1143v-1143h252v1467l1 3v66h-267l-952 -1224v1224z" />
    <glyph glyph-name="uni419" unicode="&#x419;" horiz-adv-x="1639" 
d="M336 1539h-252v-1536h329l889 1144v-1144h252v1468l1 2v66h-267l-952 -1223v1223zM628 1920h-279q19 -77 68 -141q129 -168 397 -168q264 0 401 165q52 62 74 140l1 2v2h-285q-65 -57 -191 -57q-129 0 -186 57z" />
    <glyph glyph-name="uni41A" unicode="&#x41a;" horiz-adv-x="1568" 
d="M1353 1548h-255q-59 -356 -355 -522q-176 -98 -400 -120v635h-252v-1529h252v631q26 2 37 4q278 -11 483 -126q291 -165 353 -509h255q-36 258 -164 439t-320 289q-57 32 -129 62l5 2.5t4 2.5q194 109 322.5 293.5t163.5 447.5z" />
    <glyph glyph-name="uni41B" unicode="&#x41b;" horiz-adv-x="1387" 
d="M891 1536h-395l-412 -1536h261l348 1300l349 -1300h261z" />
    <glyph glyph-name="uni41C" unicode="&#x41c;" horiz-adv-x="1796" 
d="M899 683l-511 853h-304v-1536h252v1119l412 -687h302l405 675v-1107h252v1528l5 8h-302z" />
    <glyph glyph-name="uni41D" unicode="&#x41d;" horiz-adv-x="1465" 
d="M1381 1536l-252 1l-2 -643h-787l3 641l-252 1l-3 -642h-4v-252h3l-3 -642l252 -1l3 643h786l-2 -641l252 -1z" />
    <glyph glyph-name="uni41E" unicode="&#x41e;" horiz-adv-x="1656" 
d="M828 1536q209 0 385.5 -103t279.5 -279.5t103 -385.5t-103 -385.5t-279.5 -279.5t-385.5 -103t-385.5 103t-279.5 279.5t-103 385.5t103 385.5t279.5 279.5t385.5 103zM828 1284q-140 0 -259 -69t-188 -188t-69 -259t69 -259t188 -188t259 -69t259 69t188 188t69 259
t-69 259t-188 188t-259 69z" />
    <glyph glyph-name="uni41F" unicode="&#x41f;" horiz-adv-x="1438" 
d="M1354 1536h-1270v-1536h252v1284h766v-1284h252v1536z" />
    <glyph glyph-name="uni420" unicode="&#x420;" horiz-adv-x="1491" 
d="M949 1536q209 0 357.5 -148.5t148.5 -357.5v-13q-3 -99 -42.5 -189t-105.5 -156t-156 -105.5t-189 -42.5h-13h-613v-524h-252v1536h865zM336 776h613q105 0 179.5 74.5t74.5 179.5t-74.5 179.5t-179.5 74.5h-613v-508z" />
    <glyph glyph-name="uni421" unicode="&#x421;" horiz-adv-x="1446" 
d="M522 1472q-203 -100 -321 -292q-119 -191 -117 -418q2 -226 124 -417q121 -189 326 -286q203 -96 428 -70q223 27 400 169l-164 203q-118 -95 -267 -113q-151 -17 -286 47q-137 65 -218 191q-80 126 -82 278q-2 151 78 279q77 126 214 195q137 66 285 51
q149 -15 269 -109l161 206q-177 139 -403 162t-427 -76z" />
    <glyph glyph-name="uni422" unicode="&#x422;" horiz-adv-x="1428" 
d="M1344 1536h-1260v-252h504v-1284h252v1284h504v252z" />
    <glyph glyph-name="uni423" unicode="&#x423;" horiz-adv-x="1794" 
d="M927 854l-525 682h-318l684 -888l-499 -648h318l1183 1536h-318z" />
    <glyph glyph-name="uni424" unicode="&#x424;" horiz-adv-x="1896" 
d="M1074 1232h274q126 0 233 -62t169 -169t62 -233v-12q-3 -122 -64 -224.5t-164 -163.5t-225 -64h-11h-274v-304h-252v304h-274h-11q-122 3 -225 64t-164 163.5t-64 224.5v12q0 189 132 324t321 140h11h274v304h252v-304zM548 980q-88 0 -150 -62t-62 -150t62 -150t150 -62
h274v424h-274zM1074 556h274q88 0 150 62t62 150t-62 150t-150 62h-274v-424z" />
    <glyph glyph-name="uni425" unicode="&#x425;" horiz-adv-x="1713" 
d="M857 970l-451 566h-322l612 -768l-612 -768h322l451 566l450 -566h322l-611 768l611 768h-322z" />
    <glyph glyph-name="uni426" unicode="&#x426;" horiz-adv-x="1557" 
d="M336 246v1284h-252v-1536h1173v-252h252v510h-205v1278h-252v-1284h-716z" />
    <glyph glyph-name="uni427" unicode="&#x427;" horiz-adv-x="1284" 
d="M336 1009v527h-252v-527v-12q5 -191 140.5 -327t327.5 -141h12h384v-529h252v1536h-256v-755h-380q-94 0 -161 66.5t-67 161.5z" />
    <glyph glyph-name="uni428" unicode="&#x428;" horiz-adv-x="2124" 
d="M336 252v1284h-252v-1536h1956v1536h-252v-1284h-600v1284h-252v-1284h-600z" />
    <glyph glyph-name="uni429" unicode="&#x429;" horiz-adv-x="2336" 
d="M336 252v1284h-252v-1536h1835l-149 -173l192 -165l290 338v252h-270v1284h-252v-1284h-551v1284h-252v-1284h-591z" />
    <glyph glyph-name="uni42A" unicode="&#x42a;" horiz-adv-x="1812" 
d="M666 1536v-530h556h13q99 -3 189 -42.5t156 -105.5t105.5 -156t42.5 -189v-13q0 -209 -148.5 -357.5t-357.5 -148.5h-808v1290h-330v252h582zM672 754v-508h550q105 0 179.5 74.5t74.5 179.5t-74.5 179.5t-179.5 74.5h-550z" />
    <glyph glyph-name="uni42B" unicode="&#x42b;" horiz-adv-x="1911" 
d="M1827 0v1536h-252v-1536h252zM336 1536v-524h613h13q99 -3 189 -42.5t156 -105.5t105.5 -156t42.5 -189v-13q0 -209 -148.5 -357.5t-357.5 -148.5h-865v1536h252zM336 760v-508h613q105 0 179.5 74.5t74.5 179.5t-74.5 179.5t-179.5 74.5h-613z" />
    <glyph glyph-name="uni42C" unicode="&#x42c;" horiz-adv-x="1539" 
d="M336 1536v-524h613h13q99 -3 189 -42.5t156 -105.5t105.5 -156t42.5 -189v-13q0 -209 -148.5 -357.5t-357.5 -148.5h-865v1536h252zM336 760v-508h613q105 0 179.5 74.5t74.5 179.5t-74.5 179.5t-179.5 74.5h-613z" />
    <glyph glyph-name="uni42D" unicode="&#x42d;" horiz-adv-x="1446" 
d="M497 1548q-226 -23 -403 -162l161 -206q118 94 268 109q149 15 286 -51q135 -68 214 -195q43 -68 63 -149h-584v-252h584q-21 -82 -67 -156q-83 -127 -218 -191t-286 -47q-149 18 -267 113l-164 -203q177 -142 400 -169q225 -26 428 70q205 97 326 286q122 191 124 417
q2 227 -117 418q-118 192 -321 292q-203 99 -427 76z" />
    <glyph glyph-name="uni42E" unicode="&#x42e;" horiz-adv-x="2400" 
d="M398 846h324q14 143 80 271t167 220t235.5 145.5t281.5 53.5q209 0 385.5 -103t279.5 -279.5t103 -385.5t-103 -385.5t-279.5 -279.5t-385.5 -103q-267 0 -474.5 164.5t-270.5 417.5h-343v-582h-252v1536h252v-690zM1486 1284q-140 0 -259 -69t-188 -188t-69 -259
t69 -259t188 -188t259 -69t259 69t188 188t69 259t-69 259t-188 188t-259 69z" />
    <glyph glyph-name="uni42F" unicode="&#x42f;" horiz-adv-x="1587" 
d="M1503 0h-252v524h-287l-524 -524h-356l525 525q-97 6 -184 46.5t-150.5 106t-101.5 154t-40 185.5l-1 13q0 137 68 253.5t184.5 184.5t254.5 68h864v-1536zM639 1284q-106 0 -180.5 -74.5t-74.5 -179.5t74.5 -179.5t180.5 -74.5h612v508h-612z" />
    <glyph glyph-name="uni430" unicode="&#x430;" horiz-adv-x="1193" 
d="M1193 -204l-3 11v-12zM1142 -11h-261l-110 411h-352l-110 -411h-261l412 1536h270zM487 652h216l-108 404z" />
    <glyph glyph-name="uni431" unicode="&#x431;" horiz-adv-x="1029" 
d="M883 1284h-547v-334h134h13q192 -5 327 -143.5t135 -331.5t-135 -331.5t-327 -143.5h-13h-386v1536h799v-252zM336 698v-446h134q93 0 158 65.5t65 157.5t-65 157.5t-158 65.5h-134z" />
    <glyph glyph-name="uni432" unicode="&#x432;" horiz-adv-x="964" 
d="M342 1536q180 0 307 -127.5t127 -307.5v-11q-3 -143 -92 -256q91 -63 143.5 -162t52.5 -214q0 -124 -61.5 -229.5t-167 -167t-229.5 -61.5h-338v1536h258zM336 252h86q86 0 146 60t60 146t-60 146t-146 60h-86v-412zM336 919h6q75 0 128.5 53t53.5 129t-53.5 129.5
t-128.5 53.5h-6v-365z" />
    <glyph glyph-name="uni433" unicode="&#x433;" horiz-adv-x="900" 
d="M816 1284v252h-732v-1536h252v1284h480z" />
    <glyph glyph-name="uni434" unicode="&#x434;" horiz-adv-x="1356" 
d="M1092 222h186v-607h-252v355h-696v-355h-252v607h125q39 182 39 367v941h850v-1308zM494 589q0 -188 -34 -367h380v1056h-346v-689z" />
    <glyph glyph-name="uni435" unicode="&#x435;" horiz-adv-x="852" 
d="M771 1284v252h-687v-1536h687v252h-435v367h436v252h-436v413h435z" />
    <glyph glyph-name="uni436" unicode="&#x436;" horiz-adv-x="1344" 
d="M546 1241l-170 296h-291l442 -768l-443 -770h291l171 298v-296h252v296l171 -298h291l-443 770l442 768h-291l-170 -296v296h-252v-296z" />
    <glyph glyph-name="uni437" unicode="&#x437;" horiz-adv-x="943" 
d="M470 1536q-148 0 -258.5 -98.5t-127.5 -244.5h257q14 40 49.5 65.5t79.5 25.5q56 0 96.5 -40t40.5 -97v-122q0 -44 -26 -79.5t-67 -49.5q-21 3 -44 3q-4 0 -12 -0.5t-12 -0.5v-260q5 -1 14 -1h10q16 0 44 2q41 -14 67 -49.5t26 -79.5v-122q0 -56 -40.5 -96.5t-96.5 -40.5
q-44 0 -79 25.5t-50 66.5h-257q17 -143 124 -241.5t252 -101.5l10 -1q158 0 271 110.5t118 268.5v10v122q0 147 -98 258q94 105 98 247v10v122q0 161 -114 275t-275 114z" />
    <glyph glyph-name="uni438" unicode="&#x438;" horiz-adv-x="1176" 
d="M336 1536h-252v-1536h293l472 965v-965h243v1536h-245l-511 -1046v1046z" />
    <glyph glyph-name="uni439" unicode="&#x439;" horiz-adv-x="1176" 
d="M336 1539h-252v-1536h293l472 966v-966h243v1536h-245l-511 -1046v1046zM508 1920h-260q10 -63 37 -119q40 -82 114.5 -136t184.5 -54q109 0 185 53.5t117 133.5q28 53 42 122h-263l-3 -6q-12 -23 -30 -38q-20 -13 -48 -13q-26 0 -45 12q-15 11 -27 36q0 1 -2 4t-2 5z
" />
    <glyph glyph-name="uni43A" unicode="&#x43a;" horiz-adv-x="1012" 
d="M326 1021v515h-242v-1536h242v444l298 -444h303l-491 732l528 787l-25 17h-268z" />
    <glyph glyph-name="uni43B" unicode="&#x43b;" horiz-adv-x="950" 
d="M639 1536h-328l-227 -1536h255l136 924l136 -924h255z" />
    <glyph glyph-name="uni43C" unicode="&#x43c;" horiz-adv-x="1230" 
d="M336 1517v19h-252v-1536h252v878l139 -324l-2 -3l4 -1l6 -14h258l6 14l3 1l-1 3l145 338v-892h252v1536h-252v-5l-282 -657z" />
    <glyph glyph-name="uni43D" unicode="&#x43d;" horiz-adv-x="1180" 
d="M1096 1536l-252 1l-3 -643h-501l3 641l-252 1l-3 -642h-4v-252h3l-3 -642l252 -1l3 643h501l-2 -641l252 -1z" />
    <glyph glyph-name="uni43E" unicode="&#x43e;" 
d="M542 1536q182 -5 308.5 -135t126.5 -312v-642v-12q-5 -181 -134.5 -308t-311.5 -127h-12q-181 5 -308 135t-127 312v642q0 185 131 316t316 131h11zM531 1284q-81 0 -138 -57t-57 -138v-642q0 -81 57 -138t138 -57q80 0 137 57t57 138v642q0 81 -57 138t-137 57z" />
    <glyph glyph-name="uni43F" unicode="&#x43f;" horiz-adv-x="980" 
d="M896 1536h-812v-1536h252v1284h308v-1284h252v1536z" />
    <glyph glyph-name="uni440" unicode="&#x440;" horiz-adv-x="1042" 
d="M452 1536q209 0 357.5 -148.5t148.5 -357.5l-1 -13q-2 -99 -41.5 -189t-105.5 -156t-156 -105.5t-189 -42.5h-13h-116v-524h-252v1536h368zM336 776h116q105 0 179.5 74.5t74.5 179.5t-74.5 179.5t-179.5 74.5h-116v-508z" />
    <glyph glyph-name="uni441" unicode="&#x441;" horiz-adv-x="893" 
d="M809 1267v252h-47q-148 0 -282.5 -57.5t-231.5 -154.5t-154.5 -231.5t-57.5 -282.5v-50q0 -148 57.5 -282.5t154.5 -231.5t231.5 -154.5t282.5 -57.5h47v252h-47q-129 0 -238 63.5t-172.5 172.5t-63.5 238v50q0 129 63.5 238t172.5 172.5t238 63.5h47z" />
    <glyph glyph-name="uni442" unicode="&#x442;" horiz-adv-x="1100" 
d="M1016 1276v252h-932v-252h340v-1276h252v1276h340z" />
    <glyph glyph-name="uni443" unicode="&#x443;" horiz-adv-x="911" 
d="M480 1090l-133 446h-263l264 -888l-193 -648h263l457 1536h-263z" />
    <glyph glyph-name="uni444" unicode="&#x444;" horiz-adv-x="1267" 
d="M760 1231q179 -16 301 -149t122 -314v-12q-4 -177 -126 -306t-297 -145v-305h-252v305q-176 16 -298 145t-126 306v12q0 182 122.5 314.5t301.5 148.5v305h252v-305zM508 977q-74 -14 -123 -73t-49 -136t49 -136t123 -73v418zM760 559q73 14 122 73t49 136t-49 136
t-122 73v-418z" />
    <glyph glyph-name="uni445" unicode="&#x445;" horiz-adv-x="1012" 
d="M506 1127l-153 409h-269l288 -768l-288 -768h269l153 409l153 -409h269l-287 768l287 768h-269z" />
    <glyph glyph-name="uni446" unicode="&#x446;" horiz-adv-x="1140" 
d="M336 252v1284h-252v-1536h720v-252h252v510h-223v1278h-252v-1284h-245z" />
    <glyph glyph-name="uni447" unicode="&#x447;" horiz-adv-x="941" 
d="M336 1009v527h-252v-527v-12q5 -191 140.5 -327t327.5 -141h12h41v-529h252v1536h-252v-755h-41q-94 0 -161 66.5t-67 161.5z" />
    <glyph glyph-name="uni448" unicode="&#x448;" horiz-adv-x="1304" 
d="M336 252v1284h-252v-1536h1136v1536h-252v-1284h-190v1284h-252v-1284h-190z" />
    <glyph glyph-name="uni449" unicode="&#x449;" horiz-adv-x="1530" 
d="M336 241v1284h-252v-1536h1030l-149 -174l191 -164l290 338v252h-226v1284h-252v-1284h-190v1284h-252v-1284h-190z" />
    <glyph glyph-name="uni44A" unicode="&#x44a;" horiz-adv-x="1119" 
d="M560 1536v-531q199 -12 337 -158t138 -347t-138 -347t-337 -158v-1h-254v1012h2v278h-224v252h476zM560 248q95 11 159 83t64 169t-64 169t-159 83v-504z" />
    <glyph glyph-name="uni44B" unicode="&#x44b;" horiz-adv-x="1233" 
d="M338 1536v-531q199 -12 337 -158t138 -347t-138 -347t-337 -158v-1h-254v1012h2v530h252zM338 248q95 11 159 83t64 169t-64 169t-159 83v-504zM1149 -3v1536h-252v-1536h252z" />
    <glyph glyph-name="uni44C" unicode="&#x44c;" horiz-adv-x="897" 
d="M338 1548v-531q199 -12 337 -158t138 -347t-138 -347t-337 -158v-1h-254v1012h2v530h252zM338 260q95 11 159 83t64 169t-64 169t-159 83v-504z" />
    <glyph glyph-name="uni44D" unicode="&#x44d;" horiz-adv-x="941" 
d="M131 1524h-47v-252h47q167 0 296 -104t166 -263h-306v-264h306q-37 -160 -166 -264t-296 -104h-47v-252h47q148 0 282.5 57.5t231.5 154.5t154.5 231.5t57.5 282.5v51q0 148 -57.5 282.5t-154.5 231.5t-231.5 154.5t-282.5 57.5z" />
    <glyph glyph-name="uni44E" unicode="&#x44e;" horiz-adv-x="1483" 
d="M998 1572q167 -5 284 -124.5t117 -287.5v-782q0 -171 -120.5 -291.5t-291.5 -120.5h-11q-167 5 -284 124.5t-117 287.5v205h-239v-582h-252v1536h252v-690h239v313q0 171 121 291.5t291 120.5h11zM987 1320q-66 0 -113 -47t-47 -113v-782q0 -66 47 -113t113 -47t113 47
t47 113v782q0 66 -47 113t-113 47z" />
    <glyph glyph-name="uni44F" unicode="&#x44f;" horiz-adv-x="1106" 
d="M1022 0h-252v330l-330 -330h-356l529 529q-182 26 -306.5 163.5t-129.5 324.5v13q0 135 66 250.5t179.5 184t247.5 71.5h13h339v-1536zM683 1284q-105 0 -179.5 -74.5t-74.5 -179.5t74.5 -179.5t179.5 -74.5h87v508h-87z" />
    <glyph glyph-name="uni451" unicode="&#x451;" horiz-adv-x="856" 
d="M771 1275v252h-687v-1536h687v252h-435v368h436v252h-436v412h435zM348 1630v275h-264v-275h264zM768 1630v275h-264v-275h264z" />
    <glyph glyph-name="enspace" unicode="&#x2002;" horiz-adv-x="1536" 
 />
    <glyph glyph-name="emspace" unicode="&#x2003;" horiz-adv-x="3072" 
 />
    <glyph glyph-name="thirdemspace" unicode="&#x2004;" horiz-adv-x="1020" 
 />
    <glyph glyph-name="quarteremspace" unicode="&#x2005;" horiz-adv-x="768" 
 />
    <glyph glyph-name="sixthemspace" unicode="&#x2006;" horiz-adv-x="516" 
 />
    <glyph glyph-name="figurespace" unicode="&#x2007;" horiz-adv-x="768" 
 />
    <glyph glyph-name="punctuationspace" unicode="&#x2008;" horiz-adv-x="384" 
 />
    <glyph glyph-name="thinspace" unicode="&#x2009;" horiz-adv-x="192" 
 />
    <glyph glyph-name="hairspace" unicode="&#x200a;" horiz-adv-x="96" 
 />
    <glyph glyph-name="emdash" unicode="&#x2014;" horiz-adv-x="1368" 
d="M1345 588l-2 264l-1296 -6l2 -264z" />
    <glyph glyph-name="bullet" unicode="&#x2022;" horiz-adv-x="1368" 
d="M1008 300v612h-624v-612h624z" />
    <glyph glyph-name="uni2190" unicode="&#x2190;" horiz-adv-x="1932" 
d="M1072 1264l-164 208l-822 -648l-5 -204l822 -714l174 200l-556 482h1381v264h-1353z" />
    <glyph glyph-name="uni2192" unicode="&#x2192;" horiz-adv-x="1932" 
d="M1876 824l-822 648l-164 -208l523 -412h-1353v-264h1381l-556 -482l174 -200l822 714z" />
  </font>
</defs>
</svg>
