<svg width="153" height="40" viewBox="0 0 153 40" fill="none" xmlns="http://www.w3.org/2000/svg">
<rect width="153" height="40" rx="15" fill="#6499DB"/>
<path d="M21.4045 13.2407H20.7828C17.3172 13.2407 14.513 16.0449 14.513 19.5106V20.1719C14.513 23.6376 17.3172 26.4418 20.7828 26.4418H21.4045V29.7751H20.7828C15.4786 29.7751 11.1796 25.4762 11.1796 20.1719V19.5106C11.1796 14.2063 15.4786 9.90737 20.7828 9.90737H21.4045V13.2407ZM29.5627 9.6825C32.7638 9.76187 35.3167 12.3809 35.3167 15.5952V24.0873V24.246C35.2374 27.4339 32.6315 30 29.4172 30H29.2585C26.0707 29.9206 23.5045 27.3016 23.5045 24.0873V15.5952C23.5045 12.328 26.15 9.6825 29.4172 9.6825H29.5627ZM29.4172 13.0158C27.9887 13.0158 26.8379 14.1666 26.8379 15.5952V24.0873C26.8379 25.5159 27.9887 26.6667 29.4172 26.6667C30.8326 26.6667 31.9834 25.5159 31.9834 24.0873V15.5952C31.9834 14.1666 30.8326 13.0158 29.4172 13.0158ZM40.4061 9.72218L44.7977 21.5079V9.6825H48.131V30H44.4141L40.4061 19.246V30H37.4167V9.6825H40.4061V9.72218ZM53.2072 9.72218L57.5988 21.5079V9.6825H60.9321V30H57.2152L53.2072 19.246V30H50.2178V9.6825H53.2072V9.72218ZM72.1062 13.0158H66.3522V18.4788H72.1194V21.8122H66.3522V26.6667H72.1062V30H63.0189V9.6825H72.1062V13.0158ZM83.7433 13.2407H83.1216C79.656 13.2407 76.8517 16.0449 76.8517 19.5106V20.1719C76.8517 23.6376 79.656 26.4418 83.1216 26.4418H83.7433V29.7751H83.1216C77.8173 29.7751 73.5184 25.4762 73.5184 20.1719V19.5106C73.5184 14.2063 77.8173 9.90737 83.1216 9.90737H83.7433V13.2407ZM98.1713 13.1217H93.674V30H90.3406V13.1217H85.8433V9.78832H98.1713V13.1217ZM118.284 13.2407H117.662C114.197 13.2407 111.393 16.0449 111.393 19.5106V20.1719C111.393 23.6376 114.197 26.4418 117.662 26.4418H118.284V29.7751H117.662C112.358 29.7751 108.059 25.4762 108.059 20.1719V19.5106C108.059 14.2063 112.358 9.90737 117.662 9.90737H118.284V13.2407ZM125.225 9.77509C128.043 9.77509 130.318 12.0502 130.318 14.8545V15.0529H126.985V14.8545C126.985 13.8889 126.191 13.1084 125.225 13.1084C124.26 13.1084 123.479 13.8889 123.479 14.8545V15.5555V15.6217C123.506 16.4021 123.889 17.1164 124.524 17.5529L125.887 18.5053L125.913 18.5185L128.135 20.1719C129.511 21.1905 130.318 22.8042 130.318 24.5106V24.828C130.318 27.6323 128.043 29.9074 125.225 29.9074C122.421 29.9074 120.146 27.6323 120.146 24.828V24.537H123.479V24.828C123.479 25.7936 124.26 26.5741 125.225 26.5741C126.191 26.5741 126.985 25.7936 126.985 24.828V24.5106C126.985 23.8492 126.667 23.2407 126.151 22.8439L123.942 21.2169L122.633 20.291C121.098 19.2328 120.172 17.5 120.146 15.6349V15.5555V14.8545C120.146 12.0502 122.421 9.77509 125.225 9.77509ZM137.021 9.77509C139.839 9.77509 142.114 12.0502 142.114 14.8545V15.0529H138.78V14.8545C138.78 13.8889 137.987 13.1084 137.021 13.1084C136.056 13.1084 135.275 13.8889 135.275 14.8545V15.5555V15.6217C135.302 16.4021 135.685 17.1164 136.32 17.5529L137.683 18.5053L137.709 18.5185L139.931 20.1719C141.307 21.1905 142.114 22.8042 142.114 24.5106V24.828C142.114 27.6323 139.839 29.9074 137.021 29.9074C134.217 29.9074 131.942 27.6323 131.942 24.828V24.537H135.275V24.828C135.275 25.7936 136.056 26.5741 137.021 26.5741C137.987 26.5741 138.78 25.7936 138.78 24.828V24.5106C138.78 23.8492 138.463 23.2407 137.947 22.8439L135.738 21.2169L134.429 20.291C132.894 19.2328 131.968 17.5 131.942 15.6349V15.5555V14.8545C131.942 12.0502 134.217 9.77509 137.021 9.77509Z" fill="#E5EEF9"/>
</svg>
