<svg width="189" height="40" viewBox="0 0 189 40" fill="none" xmlns="http://www.w3.org/2000/svg">
<rect width="189" height="40" rx="15" fill="#6499DB"/>
<path d="M18.4134 9.6825C23.678 9.6825 27.9373 13.9418 27.9373 19.2063V20.4762C27.9373 25.7407 23.678 30 18.4134 30H11.4293V9.6825H18.4134ZM14.7626 26.6667H18.4134C21.8262 26.6667 24.6039 23.8889 24.6039 20.4762V19.2063C24.6039 15.7936 21.8262 13.0158 18.4134 13.0158H14.7626V26.6667ZM39.8653 9.6825C45.4738 9.6825 50.0241 14.2328 50.0241 19.8412C50.0241 25.4497 45.4738 30 39.8653 30C34.2569 30 29.7066 25.4497 29.7066 19.8412C29.7066 14.2328 34.2569 9.6825 39.8653 9.6825ZM39.8653 13.0158C36.0955 13.0158 33.0399 16.0714 33.0399 19.8412C33.0399 23.6111 36.0955 26.6667 39.8653 26.6667C43.6352 26.6667 46.6907 23.6111 46.6907 19.8412C46.6907 16.0714 43.6352 13.0158 39.8653 13.0158ZM59.849 26.8783L64.4654 9.6825H68.0104L72.6268 26.8783L77.23 9.6825H80.6824L75.2326 30H70.0077L66.2379 15.9259L62.468 30H57.2432L51.7934 9.6825H55.2458L59.849 26.8783ZM97.3062 25.873V9.6825H100.64V30H96.3009L84.5416 14.8809V30H81.3406V9.6825H84.7136L97.3062 25.873ZM106.073 26.6667H117.25V30H102.74V9.6825H106.073V26.6667ZM129.112 9.6825C134.721 9.6825 139.271 14.2328 139.271 19.8412C139.271 25.4497 134.721 30 129.112 30C123.504 30 118.953 25.4497 118.953 19.8412C118.953 14.2328 123.504 9.6825 129.112 9.6825ZM129.112 13.0158C125.342 13.0158 122.287 16.0714 122.287 19.8412C122.287 23.6111 125.342 26.6667 129.112 26.6667C132.882 26.6667 135.937 23.6111 135.937 19.8412C135.937 16.0714 132.882 13.0158 129.112 13.0158ZM159.466 30.1323H155.908L153.911 24.6958H146.358L144.36 30.1323H140.815L148.276 9.81478H152.006L159.466 30.1323ZM147.588 21.3624H152.694L150.141 14.418L147.588 21.3624ZM168.365 9.6825C173.63 9.6825 177.889 13.9418 177.889 19.2063V20.4762C177.889 25.7407 173.63 30 168.365 30H161.381V9.6825H168.365ZM164.714 26.6667H168.365C171.778 26.6667 174.556 23.8889 174.556 20.4762V19.2063C174.556 15.7936 171.778 13.0158 168.365 13.0158H164.714V26.6667Z" fill="#E5EEF9"/>
</svg>
